<?xml version="1.0" encoding="UTF-8"?>
<!DOCTYPE svg PUBLIC "-//W3C//DTD SVG 1.1//EN" "http://www.w3.org/Graphics/SVG/1.1/DTD/svg11.dtd">
<svg xmlns="http://www.w3.org/2000/svg" version="1.1" width="52px" height="61px" style="shape-rendering:geometricPrecision; text-rendering:geometricPrecision; image-rendering:optimizeQuality; fill-rule:evenodd; clip-rule:evenodd" xmlns:xlink="http://www.w3.org/1999/xlink">
<g><path style="opacity:0.986" fill="#080808" d="M 30.5,-0.5 C 33.5,-0.5 36.5,-0.5 39.5,-0.5C 38.5055,6.48992 34.8388,11.4899 28.5,14.5C 26.8333,14.5 25.1667,14.5 23.5,14.5C 23.4178,8.33293 25.7512,3.33293 30.5,-0.5 Z"/></g>
<g><path style="opacity:0.997" fill="#030303" d="M 28.5,14.5 C 33.4626,13.5036 38.4626,13.3369 43.5,14C 47.1529,14.9839 49.3196,17.1506 50,20.5C 43.2001,25.6211 41.8668,31.9545 46,39.5C 47.451,41.4641 49.2843,42.7974 51.5,43.5C 51.5,44.8333 51.5,46.1667 51.5,47.5C 48.9047,52.3354 45.5714,56.6688 41.5,60.5C 37.8333,60.5 34.1667,60.5 30.5,60.5C 28.1667,59.1667 25.8333,59.1667 23.5,60.5C 19.5,60.5 15.5,60.5 11.5,60.5C 5.94793,55.9449 1.94793,50.2782 -0.5,43.5C -0.5,37.1667 -0.5,30.8333 -0.5,24.5C 5.18665,13.6823 13.8533,10.6823 25.5,15.5C 26.7261,15.4805 27.7261,15.1471 28.5,14.5 Z"/></g>
</svg>
