<?xml version="1.0" encoding="UTF-8"?>
<!DOCTYPE svg PUBLIC "-//W3C//DTD SVG 1.1//EN" "http://www.w3.org/Graphics/SVG/1.1/DTD/svg11.dtd">
<svg xmlns="http://www.w3.org/2000/svg" version="1.1" width="17px" height="39px" style="shape-rendering:geometricPrecision; text-rendering:geometricPrecision; image-rendering:optimizeQuality; fill-rule:evenodd; clip-rule:evenodd" xmlns:xlink="http://www.w3.org/1999/xlink">
<g><path style="opacity:0.876" fill="#0061bc" d="M 11.5,-0.5 C 11.8333,-0.5 12.1667,-0.5 12.5,-0.5C 13.5676,0.434475 14.901,0.767809 16.5,0.5C 16.5,1.16667 16.5,1.83333 16.5,2.5C 15.8423,3.39836 15.1757,4.39836 14.5,5.5C 10.2008,4.11959 8.2008,5.78625 8.5,10.5C 10.5,10.5 12.5,10.5 14.5,10.5C 14.5,12.1667 14.5,13.8333 14.5,15.5C 12.5,15.5 10.5,15.5 8.5,15.5C 8.5,23.1667 8.5,30.8333 8.5,38.5C 6.83333,38.5 5.16667,38.5 3.5,38.5C 3.5,30.8333 3.5,23.1667 3.5,15.5C 2.16667,15.5 0.833333,15.5 -0.5,15.5C -0.5,13.8333 -0.5,12.1667 -0.5,10.5C 0.833333,10.5 2.16667,10.5 3.5,10.5C 3.05164,4.34773 5.71831,0.681065 11.5,-0.5 Z"/></g>
</svg>
