<?xml version="1.0" encoding="UTF-8"?>
<!DOCTYPE svg PUBLIC "-//W3C//DTD SVG 1.1//EN" "http://www.w3.org/Graphics/SVG/1.1/DTD/svg11.dtd">
<svg xmlns="http://www.w3.org/2000/svg" version="1.1" width="63px" height="63px" style="shape-rendering:geometricPrecision; text-rendering:geometricPrecision; image-rendering:optimizeQuality; fill-rule:evenodd; clip-rule:evenodd" xmlns:xlink="http://www.w3.org/1999/xlink">
<g><path style="opacity:0.956" fill="#ea4334" d="M 23.5,-0.5 C 29.1667,-0.5 34.8333,-0.5 40.5,-0.5C 45.4177,1.30158 49.751,4.13491 53.5,8C 50.3333,11.1667 47.1667,14.3333 44,17.5C 31.5274,9.34313 21.694,11.6765 14.5,24.5C 10.2934,22.5646 6.62674,19.8979 3.5,16.5C 7.77563,7.88153 14.4423,2.21487 23.5,-0.5 Z"/></g>
<g><path style="opacity:0.97" fill="#fabb05" d="M 3.5,16.5 C 6.62674,19.8979 10.2934,22.5646 14.5,24.5C 13.1667,28.8333 13.1667,33.1667 14.5,37.5C 10.2934,39.4354 6.62674,42.1021 3.5,45.5C 1.77567,42.6552 0.442336,39.6552 -0.5,36.5C -0.5,32.8333 -0.5,29.1667 -0.5,25.5C 0.442336,22.3448 1.77567,19.3448 3.5,16.5 Z"/></g>
<g><path style="opacity:0.961" fill="#4285f3" d="M 62.5,26.5 C 62.5,30.1667 62.5,33.8333 62.5,37.5C 61.2332,44.6204 57.8999,50.6204 52.5,55.5C 49.1667,52.5 45.8333,49.5 42.5,46.5C 44.5296,44.4634 46.1963,42.1301 47.5,39.5C 42.2079,38.5052 36.8746,38.1718 31.5,38.5C 31.5,34.1667 31.5,29.8333 31.5,25.5C 41.9154,25.1917 52.2487,25.525 62.5,26.5 Z"/></g>
<g><path style="opacity:0.963" fill="#35a753" d="M 14.5,37.5 C 20.9059,49.3013 30.2392,52.3013 42.5,46.5C 45.8333,49.5 49.1667,52.5 52.5,55.5C 48.7958,58.3517 44.7958,60.685 40.5,62.5C 34.8333,62.5 29.1667,62.5 23.5,62.5C 14.4104,59.7481 7.74375,54.0815 3.5,45.5C 6.62674,42.1021 10.2934,39.4354 14.5,37.5 Z"/></g>
</svg>
